<svg width="160" height="32" viewBox="0 0 160 32" fill="none" xmlns="http://www.w3.org/2000/svg">
<path d="M15.1933 7.30089H11.6746C11.426 7.30106 11.1797 7.25224 10.9499 7.15722C10.7201 7.0622 10.5113 6.92284 10.3354 6.7471C10.1594 6.57136 10.0199 6.36269 9.9246 6.13299C9.82934 5.9033 9.78027 5.65709 9.78018 5.40843V1.89178C9.78027 1.64315 9.82935 1.39697 9.92462 1.16731C10.0199 0.937657 10.1595 0.729024 10.3354 0.553337C10.5113 0.37765 10.7202 0.238352 10.95 0.143405C11.1797 0.0484584 11.426 -0.000276582 11.6746 -1.61277e-05H15.1933C15.6951 -1.625e-05 16.1764 0.199255 16.5314 0.553998C16.8864 0.908741 17.086 1.38992 17.0864 1.89178V5.40843C17.0862 5.9104 16.8867 6.39175 16.5317 6.74664C16.1766 7.10152 15.6952 7.30089 15.1933 7.30089Z" fill="#426DA9"/>
<path d="M6.0897 15.1839H2.131C1.85128 15.1842 1.57423 15.1294 1.3157 15.0226C1.05717 14.9158 0.822232 14.7591 0.624316 14.5614C0.4264 14.3638 0.26939 14.129 0.162265 13.8706C0.0551396 13.6122 -2.15692e-07 13.3352 0 13.0555V9.0988C0.000350399 8.53392 0.225042 7.9923 0.624663 7.59305C1.02428 7.1938 1.56611 6.96961 2.131 6.96979H6.08904C6.65393 6.96961 7.19576 7.1938 7.59538 7.59305C7.995 7.9923 8.21969 8.53392 8.22004 9.0988V13.0555C8.22004 13.3352 8.16492 13.6121 8.05783 13.8704C7.95073 14.1287 7.79377 14.3634 7.59592 14.561C7.39806 14.7586 7.16319 14.9152 6.90475 15.022C6.6463 15.1288 6.36934 15.1836 6.0897 15.1832" fill="#6D2077"/>
<path d="M5.71307 23.3947H3.29463C3.12363 23.3949 2.95427 23.3614 2.79623 23.2961C2.63819 23.2308 2.49456 23.135 2.37355 23.0142C2.25254 22.8934 2.15652 22.7499 2.09099 22.5919C2.02545 22.434 1.99167 22.2647 1.99158 22.0937V19.6785C1.99158 18.9583 2.57571 18.3755 3.29463 18.3755H5.71307C5.88412 18.3755 6.0535 18.4092 6.21152 18.4747C6.36954 18.5402 6.5131 18.6362 6.63399 18.7572C6.75489 18.8782 6.85074 19.0219 6.91608 19.18C6.98142 19.3381 7.01497 19.5075 7.01479 19.6785V22.0937C7.01479 22.4389 6.87765 22.77 6.63353 23.0141C6.3894 23.2583 6.0583 23.3954 5.71307 23.3954" fill="#AF1685"/>
<path d="M12.2051 31.0299H9.34592C9.14386 31.0303 8.94371 30.9908 8.75694 30.9137C8.57016 30.8366 8.40041 30.7235 8.25741 30.5807C8.11441 30.438 8.00096 30.2684 7.92356 30.0818C7.84615 29.8951 7.80631 29.695 7.80631 29.493V26.6351C7.80631 26.433 7.84615 26.2329 7.92355 26.0462C8.00094 25.8596 8.11438 25.69 8.25737 25.5472C8.40036 25.4044 8.5701 25.2911 8.75689 25.214C8.94367 25.1368 9.14383 25.0972 9.34592 25.0975H12.2051C12.4071 25.0974 12.6071 25.1371 12.7937 25.2144C12.9803 25.2916 13.1499 25.4048 13.2928 25.5476C13.4356 25.6904 13.549 25.86 13.6263 26.0466C13.7036 26.2332 13.7434 26.4331 13.7434 26.6351V29.493C13.7434 29.6949 13.7036 29.8949 13.6263 30.0815C13.5489 30.268 13.4356 30.4375 13.2927 30.5802C13.1499 30.723 12.9803 30.8362 12.7937 30.9133C12.607 30.9905 12.407 31.0301 12.2051 31.0299ZM22.6823 8.74003H20.7013C20.1132 8.74003 19.6362 8.26229 19.6362 7.67618V5.69848C19.6362 5.11039 20.1132 4.63265 20.7013 4.63265H22.6823C23.2704 4.63265 23.7462 5.11039 23.7462 5.69848V7.67552C23.7462 8.26229 23.2704 8.73937 22.6823 8.73937" fill="#E63888"/>
<path fill-rule="evenodd" clip-rule="evenodd" d="M16.0688 16.7968C16.6952 17.1424 17.2463 17.5799 17.5833 18.2321C18.4125 19.8338 17.8509 21.5551 16.2399 22.3606C14.7432 23.1086 12.4821 22.8396 11.2359 21.7632C10.998 21.5577 10.7951 21.3205 10.7337 21.0014C10.5975 20.2824 11.2643 19.7578 11.9825 20.03C12.2336 20.1239 12.4675 20.2699 12.6975 20.4119C13.3616 20.8203 14.0686 21.0166 14.8483 20.891C15.2434 20.8263 15.595 20.6776 15.8276 20.3327C16.1381 19.8721 16.039 19.3104 15.5679 18.8195C15.1873 18.4197 14.7135 18.1547 14.2285 17.9089C13.6483 17.6156 13.0589 17.3407 12.4926 17.0222C11.849 16.6621 11.3284 16.1665 11.0429 15.4707C10.4581 14.0394 10.9894 12.5699 12.3506 11.812C12.9816 11.4611 13.6635 11.3137 14.3798 11.3012C15.3558 11.3296 16.2657 11.5767 17.054 12.1681C17.2588 12.3227 17.4372 12.5335 17.572 12.7516C17.7405 13.0251 17.7405 13.3317 17.539 13.604C17.3335 13.8815 17.0414 14.0335 16.709 13.9641C16.3867 13.8958 16.0768 13.7786 15.7899 13.6165C15.2249 13.2941 14.6355 13.1223 13.9893 13.2102C13.7726 13.2392 13.5446 13.3027 13.355 13.4084C12.7325 13.7586 12.6446 14.5529 13.1779 15.094C13.4025 15.3233 13.6768 15.5156 13.9576 15.6729C14.6521 16.0621 15.3697 16.4136 16.0688 16.7962V16.7968ZM55.295 16.7968C55.9214 17.1424 56.4725 17.5799 56.8095 18.2321C57.6388 19.8338 57.0771 21.5551 55.4668 22.3606C53.9695 23.1086 51.7083 22.8396 50.4621 21.7632C50.2242 21.5577 50.0214 21.3205 49.9599 21.0014C49.8244 20.2824 50.4905 19.7578 51.2088 20.03C51.4599 20.1239 51.6938 20.2699 51.9237 20.4119C52.5878 20.8203 53.2955 21.0166 54.0745 20.891C54.4697 20.8263 54.8212 20.6776 55.0538 20.3327C55.3644 19.8721 55.2653 19.3104 54.7941 18.8195C54.4135 18.4197 53.9397 18.1547 53.4547 17.9089C52.8746 17.6156 52.2852 17.3407 51.7189 17.0222C51.0753 16.6621 50.5546 16.1665 50.2691 15.4707C49.6844 14.0394 50.2156 12.5699 51.5768 11.812C52.2079 11.4611 52.8898 11.3137 53.6061 11.3012C54.582 11.3296 55.4926 11.5767 56.2802 12.1681C56.4851 12.3227 56.6641 12.5335 56.7983 12.7516C56.9668 13.0251 56.9668 13.3317 56.7652 13.604C56.5597 13.8815 56.2677 14.0335 55.9353 13.9641C55.613 13.8958 55.303 13.7786 55.0162 13.6165C54.4512 13.2941 53.8618 13.1223 53.2155 13.2102C52.9988 13.2392 52.7708 13.3027 52.5812 13.4084C51.9587 13.7586 51.8709 14.5529 52.4041 15.094C52.6288 15.3233 52.903 15.5156 53.1838 15.6729C53.8783 16.0621 54.5966 16.4136 55.295 16.7962V16.7968ZM36.5594 11.3574C37.1554 11.3574 37.5968 11.8199 37.5968 12.2831C37.5968 12.7906 37.1329 13.2538 36.5594 13.2538C35.0806 13.298 33.7128 13.8273 33.7128 16.0323V21.7441C33.7128 22.2291 33.2489 22.648 32.7857 22.648C32.2782 22.648 31.8368 22.2291 31.8368 21.7441V12.3492C31.8368 11.8642 32.2782 11.4452 32.7857 11.4452C33.2278 11.4452 33.6903 11.8417 33.7128 12.3056C34.4846 11.7109 35.4784 11.3792 36.5594 11.3574ZM68.4966 11.4459C68.9605 11.4459 69.4237 11.8648 69.4237 12.3492V21.7434C69.4237 22.2284 68.9605 22.6473 68.4966 22.6473C67.9885 22.6473 67.5484 22.2284 67.5484 21.7434V21.2809C66.5058 22.2175 65.1538 22.7357 63.7523 22.7359C63.001 22.7397 62.2564 22.5947 61.5615 22.309C60.8667 22.0234 60.2353 21.6028 59.7039 21.0717C59.1726 20.5406 58.7517 19.9094 58.4658 19.2147C58.1798 18.52 58.0344 17.7754 58.0379 17.0242C58.0379 13.8934 60.5752 11.3574 63.7523 11.3574C65.2086 11.3574 66.5341 11.9084 67.5484 12.813V12.3498C67.5484 11.8648 67.9885 11.4459 68.4966 11.4459ZM63.7523 20.8401C65.8707 20.8401 67.5484 19.1637 67.5484 17.0242C67.5519 16.5248 67.4561 16.0298 67.2665 15.5678C67.077 15.1058 66.7974 14.6861 66.4442 14.3332C66.0909 13.9802 65.671 13.7011 65.2089 13.5119C64.7467 13.3227 64.2516 13.2274 63.7523 13.2313C61.6113 13.2313 59.9356 14.9077 59.9356 17.0242C59.9356 19.1637 61.612 20.8401 63.7523 20.8401ZM47.6452 11.4459C48.1084 11.4459 48.5723 11.8648 48.5723 12.3492V21.7434C48.5723 22.2284 48.1084 22.6473 47.6452 22.6473C47.1371 22.6473 46.697 22.2284 46.697 21.7434V21.2809C45.6542 22.2176 44.3019 22.7358 42.9002 22.7359C42.1489 22.7397 41.4043 22.5947 40.7094 22.309C40.0146 22.0234 39.3832 21.6028 38.8519 21.0717C38.3205 20.5406 37.8997 19.9094 37.6137 19.2147C37.3277 18.52 37.1823 17.7754 37.1858 17.0242C37.1858 13.8934 39.7232 11.3574 42.9002 11.3574C44.302 11.3577 45.6543 11.8761 46.697 12.813V12.3498C46.697 11.8648 47.1371 11.4459 47.6452 11.4459ZM42.9002 20.8401C45.0186 20.8401 46.6963 19.1637 46.6963 17.0242C46.6963 14.9077 45.0186 13.2313 42.9002 13.2313C40.7593 13.2313 39.0835 14.9077 39.0835 17.0242C39.0835 19.1637 40.7599 20.8401 42.9002 20.8401ZM24.6694 11.358C27.7143 11.358 30.2959 13.8273 30.3402 16.7169C30.3402 17.2211 29.9867 17.6116 29.571 17.7081C29.5585 17.7114 29.5453 17.712 29.5327 17.7147C29.5076 17.72 29.4825 17.7279 29.4574 17.7299H29.4164C29.4111 17.7299 29.4045 17.7325 29.3986 17.7325H20.8951C21.2274 19.541 22.7717 20.8401 24.6687 20.8401C25.6612 20.8401 26.6108 20.5309 27.2504 19.8483C27.4486 19.6494 27.7143 19.4723 28.0017 19.4723C28.5085 19.4723 28.9499 19.9144 28.9499 20.4212C28.9499 20.6855 28.8177 20.9498 28.6189 21.1262C27.6039 22.1405 26.1918 22.7359 24.6694 22.7359C23.918 22.7398 23.1733 22.5948 22.4783 22.3092C21.7833 22.0236 21.1517 21.6031 20.6202 21.072C20.0886 20.5409 19.6676 19.9097 19.3815 19.2149C19.0953 18.5202 18.9497 17.7756 18.953 17.0242C18.953 13.8934 21.4917 11.3574 24.6687 11.3574L24.6694 11.358ZM21.0285 15.8579H28.2878C28.0436 15.0915 27.5607 14.4233 26.9097 13.9509C26.2587 13.4785 25.4737 13.2266 24.6694 13.232C22.9369 13.232 21.5135 14.3289 21.0285 15.8586V15.8579ZM119.937 16.7162C119.937 17.2211 119.583 17.6116 119.167 17.7074C119.155 17.7114 119.142 17.712 119.129 17.7147C119.104 17.72 119.079 17.7279 119.054 17.7299H119.013C119.008 17.7299 119.001 17.7325 118.996 17.7325H110.492C110.824 19.5397 112.369 20.8395 114.265 20.8395C115.258 20.8395 116.207 20.5302 116.847 19.8476C117.045 19.6488 117.311 19.4723 117.597 19.4723C118.105 19.4723 118.546 19.9131 118.546 20.4199C118.546 20.6842 118.414 20.9492 118.215 21.1256C117.2 22.1399 115.788 22.7352 114.265 22.7352C113.514 22.7391 112.769 22.594 112.075 22.3085C111.38 22.0229 110.748 21.6026 110.217 21.0716C109.685 20.5406 109.264 19.9096 108.978 19.215C108.692 18.5205 108.546 17.776 108.549 17.0248C108.549 13.8934 111.088 11.3574 114.265 11.3574C117.311 11.3574 119.892 13.8273 119.937 16.7162ZM114.266 13.232C112.533 13.232 111.11 14.3295 110.625 15.8586H117.884C117.64 15.092 117.157 14.4236 116.506 13.951C115.855 13.4784 115.07 13.2265 114.266 13.232ZM86.0508 16.7162C86.0522 16.9385 85.9809 17.1552 85.8476 17.3331C85.7143 17.511 85.5264 17.6404 85.3127 17.7014C85.281 17.7114 85.2486 17.716 85.2155 17.7213C85.2003 17.7233 85.1845 17.7279 85.1686 17.7299H85.1422C85.1363 17.7299 85.131 17.7325 85.1244 17.7325H76.607C76.9393 19.5397 78.4829 20.8395 80.38 20.8395C81.3731 20.8395 82.322 20.5302 82.9616 19.8476C83.1605 19.6488 83.4255 19.4723 83.7116 19.4723C84.2197 19.4723 84.6605 19.9131 84.6605 20.4199C84.6605 20.6842 84.5283 20.9492 84.3301 21.1256C83.3152 22.1399 81.9024 22.7352 80.38 22.7352C79.6288 22.7391 78.8843 22.594 78.1896 22.3085C77.4948 22.0229 76.8635 21.6025 76.3321 21.0715C75.8008 20.5405 75.3799 19.9095 75.0939 19.2149C74.8079 18.5204 74.6623 17.776 74.6656 17.0248C74.6656 13.8941 77.203 11.358 80.38 11.358C83.4262 11.358 86.0065 13.8273 86.0508 16.7162ZM80.3807 13.232C78.6494 13.232 77.2254 14.3295 76.7404 15.8586H83.9984C83.7545 15.0921 83.2718 14.4237 82.6209 13.9511C81.97 13.4785 81.185 13.2265 80.3807 13.232ZM153.388 16.1427C153.388 14.5773 152.021 13.2102 150.454 13.2102C148.931 13.2102 147.519 13.8273 147.519 16.033V21.7434C147.519 22.2284 147.055 22.6473 146.591 22.6473C146.083 22.6473 145.643 22.2284 145.643 21.7434V12.3492C145.643 11.8642 146.083 11.4452 146.591 11.4452C147.034 11.4452 147.497 11.8417 147.519 12.3056C148.314 11.6877 149.329 11.3574 150.431 11.3574C152.991 11.3574 155.264 13.3641 155.264 15.8771V21.7434C155.264 22.2284 154.802 22.6473 154.338 22.6473C153.83 22.6473 153.389 22.2284 153.389 21.7434V16.1427H153.388ZM141.958 12.3498C141.958 11.8642 142.398 11.4452 142.906 11.4452C143.37 11.4452 143.833 11.8642 143.833 12.3492V21.7434C143.833 22.2284 143.37 22.6473 142.906 22.6473C142.398 22.6473 141.958 22.2284 141.958 21.7434V21.2802C140.915 22.2167 139.563 22.7349 138.161 22.7352C137.41 22.7391 136.666 22.594 135.971 22.3085C135.276 22.0229 134.645 21.6025 134.114 21.0715C133.582 20.5405 133.161 19.9095 132.875 19.2149C132.589 18.5204 132.444 17.776 132.447 17.0248C132.447 13.8941 134.984 11.358 138.161 11.358C139.563 11.3581 140.915 11.8763 141.958 12.813V12.3492V12.3498ZM138.161 20.8395C140.281 20.8395 141.958 19.1637 141.958 17.0248C141.958 14.9077 140.28 13.232 138.161 13.232C136.021 13.232 134.345 14.9077 134.345 17.0248C134.345 19.1637 136.021 20.8395 138.161 20.8395ZM129.974 11.4459C130.439 11.4459 130.902 11.8648 130.902 12.3492V21.7434C130.902 22.2284 130.439 22.6473 129.975 22.6473C129.468 22.6473 129.027 22.2284 129.027 21.7434V12.3498C129.027 11.8648 129.468 11.4459 129.975 11.4459H129.974ZM123.4 16.0323V21.7434C123.4 22.2284 122.937 22.6473 122.473 22.6473C121.965 22.6473 121.524 22.2284 121.524 21.7434V12.3492C121.524 11.8642 121.965 11.4452 122.473 11.4452C122.915 11.4452 123.378 11.8417 123.4 12.3056C124.172 11.7102 125.165 11.3792 126.246 11.3574C126.842 11.3574 127.284 11.8199 127.284 12.2831C127.284 12.7899 126.82 13.2538 126.246 13.2538C124.768 13.298 123.4 13.8273 123.4 16.0323H123.4ZM97.7346 12.8124C98.7749 11.8725 100.128 11.3538 101.53 11.3574C102.281 11.3536 103.026 11.4987 103.721 11.7843C104.415 12.07 105.047 12.4904 105.578 13.0215C106.11 13.5525 106.53 14.1835 106.817 14.8781C107.103 15.5728 107.248 16.3172 107.245 17.0684C107.245 20.2005 104.708 22.7359 101.529 22.7359C100.128 22.7391 98.7747 22.2202 97.7346 21.2802V26.1534C97.7346 26.6384 97.2932 27.0574 96.7864 27.0574C96.3225 27.0574 95.8593 26.6384 95.8593 26.1534V12.3498C95.8593 11.8648 96.3218 11.4452 96.7864 11.4452C97.2932 11.4452 97.7346 11.8648 97.7346 12.3492V12.8124ZM101.53 13.2544C99.4116 13.2544 97.7346 14.9295 97.7346 17.0691C97.7311 17.5683 97.8269 18.0633 98.0164 18.5252C98.2059 18.9871 98.4854 19.4067 98.8386 19.7596C99.1918 20.1125 99.6116 20.3916 100.074 20.5807C100.536 20.7699 101.031 20.8652 101.53 20.8613C103.671 20.8613 105.347 19.1855 105.347 17.0684C105.347 14.9295 103.67 13.2544 101.53 13.2544ZM88.2941 22.2278C88.117 22.4927 87.8302 22.6249 87.521 22.6249C87.3452 22.6249 87.1463 22.5806 86.9924 22.4927C86.7492 22.3381 86.5721 22.0077 86.5721 21.6773C86.5721 21.5227 86.6171 21.3681 86.7043 21.2359L89.3533 17.0691L86.7049 12.9009C86.617 12.7688 86.5728 12.5923 86.5728 12.4384C86.5728 12.1298 86.7267 11.7987 87.0142 11.6441C87.1681 11.5562 87.3234 11.512 87.4992 11.512C87.8084 11.512 88.117 11.6441 88.2941 11.9084L90.4568 15.3266L92.6407 11.9091C92.8178 11.6441 93.1263 11.512 93.4356 11.512C93.612 11.512 93.766 11.5562 93.9206 11.6441C94.2074 11.7987 94.3613 12.1298 94.3613 12.4377C94.3613 12.5923 94.3177 12.7688 94.2292 12.9009L91.5814 17.0691L94.2292 21.2359C94.3177 21.3681 94.3613 21.5227 94.3613 21.6773C94.3613 22.0077 94.1856 22.3381 93.9424 22.4927C93.7884 22.5806 93.5895 22.6249 93.4131 22.6249C93.1045 22.6249 92.8171 22.4927 92.6407 22.2284L90.4568 18.832L88.2941 22.2284V22.2278ZM129.962 10.0602C129.332 10.0602 128.817 9.55145 128.817 8.92041C128.817 8.29004 129.332 7.77859 129.962 7.77859C130.26 7.78576 130.543 7.9091 130.751 8.12227C130.959 8.33543 131.076 8.62152 131.076 8.91942C131.076 9.21732 130.959 9.50341 130.751 9.71658C130.543 9.92974 130.26 10.0531 129.962 10.0602Z" fill="#1D4F91"/>
<path d="M159.093 22.656C159.007 22.656 158.957 22.5932 158.939 22.5351L158.496 21.2334V22.5021C158.496 22.5886 158.428 22.6534 158.34 22.6534C158.319 22.6537 158.299 22.6501 158.281 22.6427C158.262 22.6353 158.245 22.6243 158.23 22.6103C158.216 22.5964 158.204 22.5796 158.196 22.5612C158.188 22.5427 158.184 22.5228 158.184 22.5027V20.8237C158.184 20.6981 158.293 20.5891 158.419 20.5891C158.518 20.5891 158.611 20.6598 158.644 20.7622L159.093 22.0752L159.538 20.7616C159.554 20.7127 159.584 20.6699 159.624 20.639C159.665 20.6081 159.714 20.5906 159.766 20.5891C159.891 20.5891 160 20.6981 160 20.8237V22.5021C160 22.5886 159.933 22.6534 159.845 22.6534C159.825 22.6537 159.805 22.6501 159.786 22.6427C159.767 22.6353 159.75 22.6243 159.736 22.6103C159.721 22.5964 159.71 22.5796 159.702 22.5612C159.694 22.5427 159.689 22.5228 159.689 22.5027V21.2373C159.62 21.4395 159.514 21.7527 159.428 22.0065C159.251 22.5291 159.251 22.5305 159.248 22.5357C159.213 22.615 159.161 22.656 159.093 22.656ZM157.252 22.6534C157.211 22.6539 157.172 22.6383 157.143 22.6101C157.114 22.5819 157.097 22.5433 157.097 22.5027V20.9116H156.741C156.72 20.9112 156.701 20.9069 156.682 20.8989C156.664 20.8909 156.647 20.8793 156.633 20.8648C156.619 20.8503 156.608 20.8332 156.601 20.8145C156.593 20.7958 156.59 20.7758 156.59 20.7556C156.59 20.6671 156.655 20.5997 156.741 20.5997H157.77C157.856 20.5997 157.921 20.6671 157.921 20.7556C157.921 20.8415 157.853 20.9116 157.77 20.9116H157.409V22.5027C157.409 22.5886 157.341 22.6534 157.252 22.6534Z" fill="#1D4F91"/>
</svg>
