<svg width="32" height="33" viewBox="0 0 32 33" fill="none" xmlns="http://www.w3.org/2000/svg">
<mask id="mask0_1210_2" style="mask-type:alpha" maskUnits="userSpaceOnUse" x="0" y="0" width="32" height="33">
<rect y="0.5" width="32" height="32" fill="#A779AD"/>
</mask>
<g mask="url(#mask0_1210_2)">
<path d="M11.3333 12.5L9.86665 9.30002L6.66665 7.83335L9.86665 6.36669L11.3333 3.16669L12.8 6.36669L16 7.83335L12.8 9.30002L11.3333 12.5ZM20 16.5L18.7333 13.7667L16 12.5L18.7333 11.2334L20 8.50002L21.2666 11.2334L24 12.5L21.2666 13.7667L20 16.5ZM5.33331 19.1667L4.06665 16.4334L1.33331 15.1667L4.06665 13.9L5.33331 11.1667L6.59998 13.9L9.33331 15.1667L6.59998 16.4334L5.33331 19.1667ZM5.99998 27.8334L3.99998 25.8334L14 15.8334L19.3333 21.1667L28.8 10.5334L30.6666 12.4L19.3333 25.1667L14 19.8334L5.99998 27.8334Z" fill="#A779AD"/>
</g>
</svg>
