<svg width="24" height="24" viewBox="0 0 24 24" fill="none" xmlns="http://www.w3.org/2000/svg">
<mask id="mask0_1205_191" style="mask-type:alpha" maskUnits="userSpaceOnUse" x="0" y="0" width="24" height="24">
<rect width="24" height="24" fill="#D9D9D9"/>
</mask>
<g mask="url(#mask0_1205_191)">
<path d="M5 21C4.45 21 3.979 20.8043 3.587 20.413C3.19567 20.021 3 19.55 3 19V5C3 4.45 3.19567 3.979 3.587 3.587C3.979 3.19567 4.45 3 5 3H9.175C9.35833 2.41667 9.71667 1.93733 10.25 1.562C10.7833 1.18733 11.3667 1 12 1C12.6667 1 13.2627 1.18733 13.788 1.562C14.3127 1.93733 14.6667 2.41667 14.85 3H19C19.55 3 20.021 3.19567 20.413 3.587C20.8043 3.979 21 4.45 21 5V10H19V5H17V8H7V5H5V19H10V21H5ZM21.6 23L18.9 20.3C18.5333 20.5167 18.15 20.6873 17.75 20.812C17.35 20.9373 16.9333 21 16.5 21C15.25 21 14.1873 20.5627 13.312 19.688C12.4373 18.8127 12 17.75 12 16.5C12 15.25 12.4373 14.1873 13.312 13.312C14.1873 12.4373 15.25 12 16.5 12C17.75 12 18.8127 12.4373 19.688 13.312C20.5627 14.1873 21 15.25 21 16.5C21 16.9333 20.9373 17.35 20.812 17.75C20.6873 18.15 20.5167 18.5333 20.3 18.9L23 21.6L21.6 23ZM16.5 19C17.2 19 17.7917 18.7583 18.275 18.275C18.7583 17.7917 19 17.2 19 16.5C19 15.8 18.7583 15.2083 18.275 14.725C17.7917 14.2417 17.2 14 16.5 14C15.8 14 15.2083 14.2417 14.725 14.725C14.2417 15.2083 14 15.8 14 16.5C14 17.2 14.2417 17.7917 14.725 18.275C15.2083 18.7583 15.8 19 16.5 19ZM12 5C12.2833 5 12.521 4.904 12.713 4.712C12.9043 4.52067 13 4.28333 13 4C13 3.71667 12.9043 3.479 12.713 3.287C12.521 3.09567 12.2833 3 12 3C11.7167 3 11.4793 3.09567 11.288 3.287C11.096 3.479 11 3.71667 11 4C11 4.28333 11.096 4.52067 11.288 4.712C11.4793 4.904 11.7167 5 12 5Z" fill="#828588"/>
</g>
</svg>
