<svg width="18" height="18" viewBox="0 0 18 18" fill="none" xmlns="http://www.w3.org/2000/svg">
<mask id="mask0_1205_123" style="mask-type:alpha" maskUnits="userSpaceOnUse" x="0" y="0" width="18" height="18">
<rect width="18" height="18" fill="#839EC3"/>
</mask>
<g mask="url(#mask0_1205_123)">
<path d="M8.4375 12.5625H9.5625V8.25H8.4375V12.5625ZM9 6.975C9.175 6.975 9.31875 6.9155 9.43125 6.7965C9.54375 6.678 9.6 6.53125 9.6 6.35625C9.6 6.19375 9.54375 6.053 9.43125 5.934C9.31875 5.8155 9.175 5.75625 9 5.75625C8.825 5.75625 8.68125 5.8155 8.56875 5.934C8.45625 6.053 8.4 6.19375 8.4 6.35625C8.4 6.53125 8.45625 6.678 8.56875 6.7965C8.68125 6.9155 8.825 6.975 9 6.975ZM9 16.125C8.0125 16.125 7.0845 15.9375 6.216 15.5625C5.347 15.1875 4.59375 14.6813 3.95625 14.0438C3.31875 13.4062 2.8125 12.653 2.4375 11.784C2.0625 10.9155 1.875 9.9875 1.875 9C1.875 8.0125 2.0625 7.08425 2.4375 6.21525C2.8125 5.34675 3.31875 4.59375 3.95625 3.95625C4.59375 3.31875 5.347 2.8125 6.216 2.4375C7.0845 2.0625 8.0125 1.875 9 1.875C9.9875 1.875 10.9158 2.0625 11.7847 2.4375C12.6532 2.8125 13.4062 3.31875 14.0438 3.95625C14.6813 4.59375 15.1875 5.34675 15.5625 6.21525C15.9375 7.08425 16.125 8.0125 16.125 9C16.125 9.9875 15.9375 10.9155 15.5625 11.784C15.1875 12.653 14.6813 13.4062 14.0438 14.0438C13.4062 14.6813 12.6532 15.1875 11.7847 15.5625C10.9158 15.9375 9.9875 16.125 9 16.125Z" fill="#839EC3"/>
</g>
</svg>
