<svg width="20" height="20" viewBox="0 0 20 20" fill="none" xmlns="http://www.w3.org/2000/svg">
<mask id="mask0_1205_168" style="mask-type:alpha" maskUnits="userSpaceOnUse" x="0" y="0" width="20" height="20">
<rect width="20" height="20" fill="#D9D9D9"/>
</mask>
<g mask="url(#mask0_1205_168)">
<path d="M7.49996 10.4167H8.33329V8.75H9.16663C9.40274 8.75 9.60079 8.67 9.76079 8.51C9.92024 8.35055 9.99996 8.15278 9.99996 7.91666V7.08333C9.99996 6.84722 9.92024 6.64916 9.76079 6.48916C9.60079 6.32972 9.40274 6.25 9.16663 6.25H7.49996V10.4167ZM8.33329 7.91666V7.08333H9.16663V7.91666H8.33329ZM10.8333 10.4167H12.5C12.7361 10.4167 12.9341 10.3367 13.0941 10.1767C13.2536 10.0172 13.3333 9.81944 13.3333 9.58333V7.08333C13.3333 6.84722 13.2536 6.64916 13.0941 6.48916C12.9341 6.32972 12.7361 6.25 12.5 6.25H10.8333V10.4167ZM11.6666 9.58333V7.08333H12.5V9.58333H11.6666ZM14.1666 10.4167H15V8.75H15.8333V7.91666H15V7.08333H15.8333V6.25H14.1666V10.4167ZM6.66663 15C6.20829 15 5.81607 14.8369 5.48996 14.5108C5.16329 14.1842 4.99996 13.7917 4.99996 13.3333V3.33333C4.99996 2.875 5.16329 2.4825 5.48996 2.15583C5.81607 1.82972 6.20829 1.66666 6.66663 1.66666H16.6666C17.125 1.66666 17.5175 1.82972 17.8441 2.15583C18.1702 2.4825 18.3333 2.875 18.3333 3.33333V13.3333C18.3333 13.7917 18.1702 14.1842 17.8441 14.5108C17.5175 14.8369 17.125 15 16.6666 15H6.66663ZM3.33329 18.3333C2.87496 18.3333 2.48274 18.1703 2.15663 17.8442C1.82996 17.5175 1.66663 17.125 1.66663 16.6667V5H3.33329V16.6667H15V18.3333H3.33329Z" fill="#1D4F91"/>
</g>
</svg>
