<svg width="20" height="20" viewBox="0 0 20 20" fill="none" xmlns="http://www.w3.org/2000/svg">
<mask id="mask0_1205_163" style="mask-type:alpha" maskUnits="userSpaceOnUse" x="0" y="0" width="20" height="20">
<rect width="20" height="20" fill="#D9D9D9"/>
</mask>
<g mask="url(#mask0_1205_163)">
<path d="M15 5.83333H4.99996V2.5H15V5.83333ZM15 10.4167C15.2361 10.4167 15.4338 10.3367 15.5933 10.1767C15.7533 10.0172 15.8333 9.81944 15.8333 9.58333C15.8333 9.34722 15.7533 9.14917 15.5933 8.98917C15.4338 8.82972 15.2361 8.75 15 8.75C14.7638 8.75 14.5661 8.82972 14.4066 8.98917C14.2466 9.14917 14.1666 9.34722 14.1666 9.58333C14.1666 9.81944 14.2466 10.0172 14.4066 10.1767C14.5661 10.3367 14.7638 10.4167 15 10.4167ZM13.3333 15.8333V12.5H6.66663V15.8333H13.3333ZM15 17.5H4.99996V14.1667H1.66663V9.16667C1.66663 8.45833 1.90968 7.86472 2.39579 7.38583C2.8819 6.90639 3.47218 6.66667 4.16663 6.66667H15.8333C16.5416 6.66667 17.1355 6.90639 17.615 7.38583C18.0938 7.86472 18.3333 8.45833 18.3333 9.16667V14.1667H15V17.5Z" fill="#1D4F91"/>
</g>
</svg>
