<svg width="32" height="32" viewBox="0 0 32 32" fill="none" xmlns="http://www.w3.org/2000/svg">
<mask id="mask0_1239_233" style="mask-type:alpha" maskUnits="userSpaceOnUse" x="0" y="0" width="32" height="32">
<rect width="32" height="32" fill="#D9D9D9"/>
</mask>
<g mask="url(#mask0_1239_233)">
<path d="M12 28C9.77778 28 7.88889 27.2222 6.33333 25.6667C4.77778 24.1111 4 22.2222 4 20V12C4 9.77778 4.77778 7.88889 6.33333 6.33333C7.88889 4.77778 9.77778 4 12 4H20C22.2222 4 24.1111 4.77778 25.6667 6.33333C27.2222 7.88889 28 9.77778 28 12V20C28 22.2222 27.2222 24.1111 25.6667 25.6667C24.1111 27.2222 22.2222 28 20 28H12ZM14.6667 21.3333L22.6667 13.3333L20.8 11.4667L14.6667 17.6L11.7333 14.6667L9.86667 16.5333L14.6667 21.3333ZM12 25.3333H20C21.4667 25.3333 22.7222 24.8111 23.7667 23.7667C24.8111 22.7222 25.3333 21.4667 25.3333 20V12C25.3333 10.5333 24.8111 9.27778 23.7667 8.23333C22.7222 7.18889 21.4667 6.66667 20 6.66667H12C10.5333 6.66667 9.27778 7.18889 8.23333 8.23333C7.18889 9.27778 6.66667 10.5333 6.66667 12V20C6.66667 21.4667 7.18889 22.7222 8.23333 23.7667C9.27778 24.8111 10.5333 25.3333 12 25.3333Z" fill="white"/>
</g>
</svg>
