<svg width="24" height="24" viewBox="0 0 24 24" fill="none" xmlns="http://www.w3.org/2000/svg">
<mask id="mask0_1205_236" style="mask-type:alpha" maskUnits="userSpaceOnUse" x="0" y="0" width="24" height="24">
<rect width="24" height="24" fill="#D9D9D9"/>
</mask>
<g mask="url(#mask0_1205_236)">
<path d="M13.5 22C11.7 22 10.1667 21.3667 8.9 20.1C7.63333 18.8333 7 17.3 7 15.5V14.925C5.56667 14.6917 4.375 14.0207 3.425 12.912C2.475 11.804 2 10.5 2 9V4C2 3.71667 2.096 3.479 2.288 3.287C2.47933 3.09567 2.71667 3 3 3H5C5 2.71667 5.09567 2.479 5.287 2.287C5.479 2.09567 5.71667 2 6 2C6.28333 2 6.521 2.09567 6.713 2.287C6.90433 2.479 7 2.71667 7 3V5C7 5.28333 6.90433 5.521 6.713 5.713C6.521 5.90433 6.28333 6 6 6C5.71667 6 5.479 5.90433 5.287 5.713C5.09567 5.521 5 5.28333 5 5H4V9C4 10.1 4.39167 11.0417 5.175 11.825C5.95833 12.6083 6.9 13 8 13C9.1 13 10.0417 12.6083 10.825 11.825C11.6083 11.0417 12 10.1 12 9V5H11C11 5.28333 10.9043 5.521 10.713 5.713C10.521 5.90433 10.2833 6 10 6C9.71667 6 9.47933 5.90433 9.288 5.713C9.096 5.521 9 5.28333 9 5V3C9 2.71667 9.096 2.479 9.288 2.287C9.47933 2.09567 9.71667 2 10 2C10.2833 2 10.521 2.09567 10.713 2.287C10.9043 2.479 11 2.71667 11 3H13C13.2833 3 13.521 3.09567 13.713 3.287C13.9043 3.479 14 3.71667 14 4V9C14 10.5 13.525 11.804 12.575 12.912C11.625 14.0207 10.4333 14.6917 9 14.925V15.5C9 16.75 9.43733 17.8127 10.312 18.688C11.1873 19.5627 12.25 20 13.5 20C14.75 20 15.8127 19.5627 16.688 18.688C17.5627 17.8127 18 16.75 18 15.5V13.825C17.4167 13.6083 16.9373 13.246 16.562 12.738C16.1873 12.2293 16 11.65 16 11C16 10.1667 16.2917 9.45833 16.875 8.875C17.4583 8.29167 18.1667 8 19 8C19.8333 8 20.5417 8.29167 21.125 8.875C21.7083 9.45833 22 10.1667 22 11C22 11.65 21.8127 12.2293 21.438 12.738C21.0627 13.246 20.5833 13.6083 20 13.825V15.5C20 17.3 19.3667 18.8333 18.1 20.1C16.8333 21.3667 15.3 22 13.5 22ZM19 12C19.2833 12 19.5207 11.904 19.712 11.712C19.904 11.5207 20 11.2833 20 11C20 10.7167 19.904 10.479 19.712 10.287C19.5207 10.0957 19.2833 10 19 10C18.7167 10 18.4793 10.0957 18.288 10.287C18.096 10.479 18 10.7167 18 11C18 11.2833 18.096 11.5207 18.288 11.712C18.4793 11.904 18.7167 12 19 12Z" fill="#C1C2C3"/>
</g>
</svg>
