<svg width="32" height="32" viewBox="0 0 32 32" fill="none" xmlns="http://www.w3.org/2000/svg">
<mask id="mask0_1214_194" style="mask-type:alpha" maskUnits="userSpaceOnUse" x="0" y="0" width="32" height="32">
<rect width="32" height="32" fill="#A779AD"/>
</mask>
<g mask="url(#mask0_1214_194)">
<path d="M16 29.3333C14.1556 29.3333 12.4222 28.9831 10.8 28.2827C9.1778 27.5831 7.76669 26.6333 6.56669 25.4333C5.36669 24.2333 4.41691 22.8222 3.71735 21.2C3.01691 19.5778 2.66669 17.8444 2.66669 16C2.66669 14.1555 3.01691 12.4222 3.71735 10.8C4.41691 9.17777 5.36669 7.76666 6.56669 6.56666C7.76669 5.36666 9.1778 4.41643 10.8 3.71599C12.4222 3.01643 14.1556 2.66666 16 2.66666C17.4445 2.66666 18.8111 2.87777 20.1 3.29999C21.3889 3.72221 22.5778 4.3111 23.6667 5.06666L21.7334 7.03332C20.8889 6.49999 19.9889 6.0831 19.0334 5.78266C18.0778 5.4831 17.0667 5.33332 16 5.33332C13.0445 5.33332 10.528 6.37199 8.45069 8.44932C6.37246 10.5275 5.33335 13.0444 5.33335 16C5.33335 18.9555 6.37246 21.4724 8.45069 23.5507C10.528 25.628 13.0445 26.6667 16 26.6667C18.9556 26.6667 21.4725 25.628 23.5507 23.5507C25.628 21.4724 26.6667 18.9555 26.6667 16C26.6667 15.6 26.6445 15.2 26.6 14.8C26.5556 14.4 26.4889 14.0111 26.4 13.6333L28.5667 11.4667C28.8111 12.1778 29 12.9111 29.1334 13.6667C29.2667 14.4222 29.3334 15.2 29.3334 16C29.3334 17.8444 28.9831 19.5778 28.2827 21.2C27.5831 22.8222 26.6334 24.2333 25.4334 25.4333C24.2334 26.6333 22.8222 27.5831 21.2 28.2827C19.5778 28.9831 17.8445 29.3333 16 29.3333ZM14.1334 22.1333L8.46669 16.4667L10.3334 14.6L14.1334 18.4L27.4667 5.03332L29.3334 6.89999L14.1334 22.1333Z" fill="#A779AD"/>
</g>
</svg>
