<svg width="189" height="98" viewBox="0 0 189 98" fill="none" xmlns="http://www.w3.org/2000/svg">
<g clip-path="url(#clip0_1226_132)">
<path d="M1.60301 76.97C0.600007 82.728 0.0410074 88.51 7.42049e-06 94.356C-0.0299926 98.732 6.77001 98.736 6.80001 94.356C6.83701 89.119 7.26001 83.94 8.16001 78.78C8.90701 74.5 2.35501 72.662 1.60301 76.972" fill="#FF483C"/>
</g>
<g clip-path="url(#clip1_1226_132)">
<path d="M21.362 35.3725C14.456 43.8648 9.10399 53.2063 5.34999 63.4455C3.86099 67.5069 10.43 69.2568 11.907 65.2269C15.235 56.1484 20.043 47.6453 26.17 40.1098C28.881 36.7766 24.1 32.0068 21.362 35.3725Z" fill="#FFD014"/>
</g>
<g clip-path="url(#clip2_1226_132)">
<path d="M101.517 0.294009C75.843 -1.73899 50.681 6.83401 31.407 23.862C28.121 26.764 32.945 31.558 36.215 28.67C54.197 12.784 77.645 5.20401 101.517 7.09401C105.881 7.44001 105.857 0.638009 101.517 0.294009Z" fill="#E0E0E1"/>
</g>
<g clip-path="url(#clip3_1226_132)">
<path d="M188.467 94.354C188.297 61.52 171.127 30.471 142.964 13.398C135.172 8.67401 126.664 5.14601 117.853 2.85201C113.615 1.74901 111.807 8.30601 116.045 9.41001C154.525 19.425 181.461 54.702 181.667 94.354C181.69 98.729 188.49 98.738 188.467 94.354Z" fill="#E0E0E1"/>
</g>
<defs>
<clipPath id="clip0_1226_132">
<rect width="9" height="24" fill="white" transform="translate(0 74)"/>
</clipPath>
<clipPath id="clip1_1226_132">
<rect width="22" height="33.5" fill="white" transform="translate(5 34)"/>
</clipPath>
<clipPath id="clip2_1226_132">
<rect width="75" height="30" fill="white" transform="translate(30)"/>
</clipPath>
<clipPath id="clip3_1226_132">
<rect width="76" height="96" fill="white" transform="translate(113 2)"/>
</clipPath>
</defs>
</svg>
